<svg xmlns="http://www.w3.org/2000/svg" xmlns:xlink="http://www.w3.org/1999/xlink" width="378" zoomAndPan="magnify" viewBox="0 0 283.5 283.500005" height="378" preserveAspectRatio="xMidYMid meet" version="1.0"><defs><clipPath id="7fe83fa863"><path d="M 0 0 L 283 0 L 283 283 L 0 283 Z M 0 0 " clip-rule="nonzero"/></clipPath><clipPath id="fc1ef1474e"><rect x="0" width="283" y="0" height="283"/></clipPath></defs><path fill="#ffffff" d="M 0 0 L 283 0 L 283 283 L 0 283 Z M 0 0 " fill-opacity="1" fill-rule="nonzero"/><g transform="matrix(1, 0, 0, 1, 0, 0.000000000000005262)"><g clip-path="url(#fc1ef1474e)"><g clip-path="url(#7fe83fa863)"><rect x="-62.37" width="408.24" fill="#ffffff" height="408.240007" y="-62.370001" fill-opacity="1"/><rect x="-62.37" width="408.24" fill="#000000" height="408.240007" y="-62.370001" fill-opacity="1"/></g><path fill="#25f4ee" d="M 121.539062 120.003906 L 121.539062 111.859375 C 118.804688 111.484375 116.03125 111.257812 113.203125 111.257812 C 79.113281 111.257812 51.378906 138.992188 51.378906 173.082031 C 51.378906 194.003906 61.832031 212.507812 77.777344 223.707031 C 67.484375 212.65625 61.378906 197.855469 61.378906 181.601562 C 61.378906 148.003906 88.125 120.777344 121.539062 120.003906 Z M 121.539062 120.003906 " fill-opacity="1" fill-rule="nonzero"/><path fill="#25f4ee" d="M 122.992188 210.015625 C 138.203125 210.015625 150.789062 197.734375 151.351562 182.667969 L 151.484375 48.234375 L 175.855469 48.234375 C 175.855469 48.234375 175.816406 48.046875 175.816406 48.046875 C 175.308594 45.285156 175.03125 42.433594 175.03125 39.527344 L 141.445312 39.527344 L 141.390625 174.148438 C 140.832031 189.230469 128.417969 201.324219 113.203125 201.324219 C 108.472656 201.324219 104.03125 200.136719 100.113281 198.082031 C 105.246094 205.1875 113.578125 210.027344 123.003906 210.027344 Z M 122.992188 210.015625 " fill-opacity="1" fill-rule="nonzero"/><path fill="#25f4ee" d="M 221.773438 94.125 L 221.773438 86.230469 C 212.386719 86.230469 203.65625 83.445312 196.324219 78.660156 C 202.84375 86.152344 211.707031 91.964844 221.773438 94.113281 Z M 221.773438 94.125 " fill-opacity="1" fill-rule="nonzero"/><path fill="#fe2c55" d="M 196.324219 78.671875 C 189.175781 70.460938 184.828125 59.753906 184.828125 48.035156 L 175.683594 48.035156 C 178.054688 60.832031 185.800781 71.820312 196.324219 78.671875 Z M 196.324219 78.671875 " fill-opacity="1" fill-rule="nonzero"/><path fill="#fe2c55" d="M 113.203125 144.578125 C 97.632812 144.578125 84.777344 157.496094 84.777344 173.070312 C 84.777344 183.910156 91.113281 193.335938 100.097656 198.070312 C 96.753906 193.429688 94.753906 187.75 94.753906 181.601562 C 94.753906 166.03125 107.417969 153.363281 122.992188 153.363281 C 125.898438 153.363281 128.683594 153.84375 131.324219 154.671875 L 131.324219 120.378906 C 128.589844 120.003906 125.816406 119.777344 122.992188 119.777344 C 122.496094 119.777344 122.019531 119.804688 121.539062 119.816406 L 121.40625 119.816406 C 121.40625 119.816406 121.3125 145.777344 121.3125 145.777344 C 118.671875 144.949219 116.113281 144.589844 113.203125 144.589844 Z M 113.203125 144.578125 " fill-opacity="1" fill-rule="nonzero"/><path fill="#fe2c55" d="M 221.773438 93.726562 L 221.613281 93.699219 L 221.613281 119.632812 C 204.1875 119.632812 188.003906 113.898438 174.828125 104.445312 L 174.828125 173.070312 C 174.828125 207.164062 147.296875 234.722656 113.203125 234.722656 C 100.03125 234.722656 87.820312 230.734375 77.765625 223.683594 C 89.058594 235.800781 105.152344 243.414062 122.992188 243.414062 C 157.082031 243.414062 184.816406 215.683594 184.816406 181.589844 L 184.816406 113.324219 C 197.988281 122.777344 214.136719 128.351562 231.546875 128.351562 L 231.546875 94.765625 C 228.1875 94.765625 224.921875 94.40625 221.761719 93.726562 Z M 221.773438 93.726562 " fill-opacity="1" fill-rule="nonzero"/><path fill="#ffffff" d="M 175.03125 173.070312 L 175.03125 104.804688 C 188.203125 114.257812 204.347656 119.832031 221.761719 119.832031 L 221.761719 93.726562 C 211.695312 91.566406 202.84375 86.164062 196.308594 78.671875 C 185.789062 71.804688 178.191406 60.832031 175.816406 48.035156 L 151.21875 48.035156 L 151.164062 182.65625 C 150.605469 197.734375 138.191406 209.828125 122.976562 209.828125 C 113.550781 209.828125 105.21875 205.175781 100.085938 198.054688 C 91.097656 193.324219 84.953125 183.910156 84.953125 173.054688 C 84.953125 157.484375 97.617188 144.816406 113.191406 144.816406 C 116.097656 144.816406 118.882812 145.296875 121.523438 146.125 L 121.523438 119.792969 C 88.097656 120.578125 61.152344 147.976562 61.152344 181.589844 C 61.152344 197.84375 67.472656 212.640625 77.753906 223.695312 C 87.792969 230.75 100.003906 234.894531 113.191406 234.894531 C 147.285156 234.894531 175.015625 207.164062 175.015625 173.070312 Z M 175.03125 173.070312 " fill-opacity="1" fill-rule="nonzero"/></g></g></svg>